INFO: Created TensorFlow Lite XNNPACK delegate for CPU.
W0000 00:00:1778437225.134411   16312 inference_feedback_manager.cc:121] Feedback manager requires a model with a single signature inference. Disabling support for feedback tensors.
ffmpeg version 8.1.1-full_build-www.gyan.dev Copyright (c) 2000-2026 the FFmpeg developers
  built with gcc 15.2.0 (Rev13, Built by MSYS2 project)
  configuration: --enable-gpl --enable-version3 --enable-static --disable-w32threads --disable-autodetect --enable-cairo --enable-fontconfig --enable-iconv --enable-gnutls --enable-lcms2 --enable-libxml2 --enable-gmp --enable-bzlib --enable-lzma --enable-libsnappy --enable-zlib --enable-librist --enable-libsrt --enable-libssh --enable-libzmq --enable-avisynth --enable-libbluray --enable-libcaca --enable-libdvdnav --enable-libdvdread --enable-sdl2 --enable-libaribb24 --enable-libaribcaption --enable-libdav1d --enable-libdavs2 --enable-libopenjpeg --enable-libquirc --enable-libuavs3d --enable-libxevd --enable-libzvbi --enable-liboapv --enable-libqrencode --enable-librav1e --enable-libsvtav1 --enable-libvvenc --enable-libwebp --enable-libx264 --enable-libx265 --enable-libxavs2 --enable-libxeve --enable-libxvid --enable-libaom --enable-libjxl --enable-libsvtjpegxs --enable-libvpx --enable-mediafoundation --enable-libass --enable-frei0r --enable-libfreetype --enable-libfribidi --enable-libharfbuzz --enable-liblensfun --enable-libvidstab --enable-libvmaf --enable-libzimg --enable-amf --enable-cuda-llvm --enable-cuvid --enable-dxva2 --enable-d3d11va --enable-d3d12va --enable-ffnvcodec --enable-libvpl --enable-nvdec --enable-nvenc --enable-vaapi --enable-libshaderc --enable-vulkan --enable-libplacebo --enable-opencl --enable-libcdio --enable-openal --enable-libgme --enable-libmodplug --enable-libopenmpt --enable-libopencore-amrwb --enable-libmp3lame --enable-libshine --enable-libtheora --enable-libtwolame --enable-libvo-amrwbenc --enable-libcodec2 --enable-libilbc --enable-libgsm --enable-liblc3 --enable-libopencore-amrnb --enable-libopus --enable-libspeex --enable-libvorbis --enable-ladspa --enable-libbs2b --enable-libflite --enable-libmysofa --enable-librubberband --enable-libsoxr --enable-chromaprint --enable-whisper
  libavutil      60. 26.101 / 60. 26.101
  libavcodec     62. 28.101 / 62. 28.101
  libavformat    62. 12.101 / 62. 12.101
  libavdevice    62.  3.101 / 62.  3.101
  libavfilter    11. 14.101 / 11. 14.101
  libswscale      9.  5.101 /  9.  5.101
  libswresample   6.  3.101 /  6.  3.101
Input #0, avi, from 'C:\Users\Macie\AppData\Local\Temp\face_track_90og0tvi\segment_1_06-57_53_07-47_13_silent.avi':
  Metadata:
    software        : Lavf62.12.101
  Duration: 00:00:49.60, start: 0.000000, bitrate: 6874 kb/s
  Stream #0:0: Video: h264 (High) (H264 / 0x34363248), yuvj420p(pc, bt470bg/unknown/unknown, progressive), 1080x1920 [SAR 1:1 DAR 9:16], 6873 kb/s, 25 fps, 25 tbr, 25 tbn
Input #1, mov,mp4,m4a,3gp,3g2,mj2, from 'C:\Users\Macie\AppData\Local\Temp\face_track_90og0tvi\segment_1_06-57_53_07-47_13_audio.m4a':
  Metadata:
    major_brand     : M4A 
    minor_version   : 512
    compatible_brands: M4A isomiso2
    encoder         : Lavf62.12.101
  Duration: 00:00:49.60, start: 0.000000, bitrate: 193 kb/s
  Stream #1:0[0x1](eng): Audio: aac (LC) (mp4a / 0x6134706D), 48000 Hz, stereo, fltp, 192 kb/s (default)
    Metadata:
      handler_name    : SoundHandler
Stream mapping:
  Stream #0:0 -> #0:0 (h264 (native) -> h264 (libx264))
  Stream #1:0 -> #0:1 (aac (native) -> aac (native))
Press [q] to stop, [?] for help
[swscaler @ 000001a68b5f7180] deprecated pixel format used, make sure you did set range correctly
[libx264 @ 000001a689c92880] using SAR=1/1
[libx264 @ 000001a689c92880] using cpu capabilities: MMX2 SSE2Fast SSSE3 SSE4.2 AVX FMA3 BMI2 AVX2 AVX512
[libx264 @ 000001a689c92880] profile High, level 4.0, 4:2:0, 8-bit
[libx264 @ 000001a689c92880] 264 - core 165 r3223 0480cb0 - H.264/MPEG-4 AVC codec - Copyleft 2003-2025 - http://www.videolan.org/x264.html - options: cabac=1 ref=1 deblock=1:0:0 analyse=0x3:0x3 me=dia subme=1 psy=1 psy_rd=1.00:0.00 mixed_ref=0 me_range=16 chroma_me=1 trellis=0 8x8dct=1 cqm=0 deadzone=21,11 fast_pskip=1 chroma_qp_offset=0 threads=24 lookahead_threads=4 sliced_threads=0 nr=0 decimate=1 interlaced=0 bluray_compat=0 constrained_intra=0 bframes=3 b_pyramid=2 b_adapt=1 b_bias=0 direct=1 weightb=1 open_gop=0 weightp=1 keyint=250 keyint_min=25 scenecut=40 intra_refresh=0 rc=crf mbtree=0 crf=23.0 qcomp=0.60 qpmin=0 qpmax=69 qpstep=4 ip_ratio=1.40 pb_ratio=1.30 aq=1:1.00
Output #0, mp4, to 'D:\PythonProjects\viral-cutter-ai\benchmarks\runs\20260510_171633\putin_parade_commentary\auto\cuts_raw\segment_1_06-57_53_07-47_13.mp4':
  Metadata:
    software        : Lavf62.12.101
    encoder         : Lavf62.12.101
  Stream #0:0: Video: h264 (avc1 / 0x31637661), yuv420p(pc, bt470bg/unknown/unknown, progressive), 1080x1920 [SAR 1:1 DAR 9:16], q=2-31, 25 fps, 12800 tbn
    Metadata:
      encoder         : Lavc62.28.101 libx264
    Side data:
      CPB properties: bitrate max/min/avg: 0/0/0 buffer size: 0 vbv_delay: N/A
  Stream #0:1(eng): Audio: aac (LC) (mp4a / 0x6134706D), 48000 Hz, stereo, fltp, 192 kb/s (default)
    Metadata:
      encoder         : Lavc62.28.101 aac
      handler_name    : SoundHandler
frame=  233 fps=0.0 q=21.0 size=    2816KiB time=00:00:09.32 bitrate=2475.2kbits/s speed=  18x elapsed=0:00:00.51    frame=  567 fps=551 q=21.0 size=    7936KiB time=00:00:22.67 bitrate=2866.8kbits/s speed=  22x elapsed=0:00:01.02    frame=  864 fps=559 q=25.0 size=   13824KiB time=00:00:34.56 bitrate=3276.8kbits/s speed=22.4x elapsed=0:00:01.54    frame= 1188 fps=576 q=22.0 size=   20736KiB time=00:00:48.83 bitrate=3478.7kbits/s speed=23.7x elapsed=0:00:02.06    [mp4 @ 000001a6878d50c0] Starting second pass: moving the moov atom to the beginning of the file
[out#0/mp4 @ 000001a68791b0c0] video:20173KiB audio:1171KiB subtitle:0KiB other streams:0KiB global headers:0KiB muxing overhead: 0.176871%
frame= 1238 fps=590 q=-1.0 Lsize=   21381KiB time=00:00:49.52 bitrate=3537.0kbits/s speed=23.6x elapsed=0:00:02.09    
[libx264 @ 000001a689c92880] frame I:11    Avg QP:14.30  size:112216
[libx264 @ 000001a689c92880] frame P:403   Avg QP:16.71  size: 30320
[libx264 @ 000001a689c92880] frame B:824   Avg QP:18.38  size:  8741
[libx264 @ 000001a689c92880] consecutive B-frames:  7.7%  9.7%  3.2% 79.5%
[libx264 @ 000001a689c92880] mb I  I16..4: 22.3% 44.5% 33.1%
[libx264 @ 000001a689c92880] mb P  I16..4:  8.0% 19.1%  4.1%  P16..4: 35.0%  0.0%  0.0%  0.0%  0.0%    skip:33.8%
[libx264 @ 000001a689c92880] mb B  I16..4:  1.3%  3.0%  0.4%  B16..8: 19.9%  0.0%  0.0%  direct: 8.2%  skip:67.3%  L0:39.9% L1:48.0% BI:12.1%
[libx264 @ 000001a689c92880] 8x8 transform intra:60.7% inter:46.1%
[libx264 @ 000001a689c92880] coded y,uvDC,uvAC intra: 43.4% 36.5% 15.1% inter: 5.8% 12.3% 0.4%
[libx264 @ 000001a689c92880] i16 v,h,dc,p: 46% 26%  6% 22%
[libx264 @ 000001a689c92880] i8 v,h,dc,ddl,ddr,vr,hd,vl,hu: 18% 21% 14%  7%  8%  8%  9%  7%  9%
[libx264 @ 000001a689c92880] i4 v,h,dc,ddl,ddr,vr,hd,vl,hu: 22% 25%  9%  9%  7%  7%  7%  6%  8%
[libx264 @ 000001a689c92880] i8c dc,h,v,p: 54% 18% 17% 11%
[libx264 @ 000001a689c92880] Weighted P-Frames: Y:3.7% UV:0.7%
[libx264 @ 000001a689c92880] kb/s:3337.00
[aac @ 000001a6898620c0] Qavg: 832.100
W0000 00:00:1778437250.084959   22876 inference_feedback_manager.cc:121] Feedback manager requires a model with a single signature inference. Disabling support for feedback tensors.
ffmpeg version 8.1.1-full_build-www.gyan.dev Copyright (c) 2000-2026 the FFmpeg developers
  built with gcc 15.2.0 (Rev13, Built by MSYS2 project)
  configuration: --enable-gpl --enable-version3 --enable-static --disable-w32threads --disable-autodetect --enable-cairo --enable-fontconfig --enable-iconv --enable-gnutls --enable-lcms2 --enable-libxml2 --enable-gmp --enable-bzlib --enable-lzma --enable-libsnappy --enable-zlib --enable-librist --enable-libsrt --enable-libssh --enable-libzmq --enable-avisynth --enable-libbluray --enable-libcaca --enable-libdvdnav --enable-libdvdread --enable-sdl2 --enable-libaribb24 --enable-libaribcaption --enable-libdav1d --enable-libdavs2 --enable-libopenjpeg --enable-libquirc --enable-libuavs3d --enable-libxevd --enable-libzvbi --enable-liboapv --enable-libqrencode --enable-librav1e --enable-libsvtav1 --enable-libvvenc --enable-libwebp --enable-libx264 --enable-libx265 --enable-libxavs2 --enable-libxeve --enable-libxvid --enable-libaom --enable-libjxl --enable-libsvtjpegxs --enable-libvpx --enable-mediafoundation --enable-libass --enable-frei0r --enable-libfreetype --enable-libfribidi --enable-libharfbuzz --enable-liblensfun --enable-libvidstab --enable-libvmaf --enable-libzimg --enable-amf --enable-cuda-llvm --enable-cuvid --enable-dxva2 --enable-d3d11va --enable-d3d12va --enable-ffnvcodec --enable-libvpl --enable-nvdec --enable-nvenc --enable-vaapi --enable-libshaderc --enable-vulkan --enable-libplacebo --enable-opencl --enable-libcdio --enable-openal --enable-libgme --enable-libmodplug --enable-libopenmpt --enable-libopencore-amrwb --enable-libmp3lame --enable-libshine --enable-libtheora --enable-libtwolame --enable-libvo-amrwbenc --enable-libcodec2 --enable-libilbc --enable-libgsm --enable-liblc3 --enable-libopencore-amrnb --enable-libopus --enable-libspeex --enable-libvorbis --enable-ladspa --enable-libbs2b --enable-libflite --enable-libmysofa --enable-librubberband --enable-libsoxr --enable-chromaprint --enable-whisper
  libavutil      60. 26.101 / 60. 26.101
  libavcodec     62. 28.101 / 62. 28.101
  libavformat    62. 12.101 / 62. 12.101
  libavdevice    62.  3.101 / 62.  3.101
  libavfilter    11. 14.101 / 11. 14.101
  libswscale      9.  5.101 /  9.  5.101
  libswresample   6.  3.101 /  6.  3.101
Input #0, avi, from 'C:\Users\Macie\AppData\Local\Temp\face_track_4klsbow5\segment_2_10-08_63_10-39_61_silent.avi':
  Metadata:
    software        : Lavf62.12.101
  Duration: 00:00:31.00, start: 0.000000, bitrate: 7310 kb/s
  Stream #0:0: Video: h264 (High) (H264 / 0x34363248), yuvj420p(pc, bt470bg/unknown/unknown, progressive), 1080x1920 [SAR 1:1 DAR 9:16], 7313 kb/s, 25 fps, 25 tbr, 25 tbn
Input #1, mov,mp4,m4a,3gp,3g2,mj2, from 'C:\Users\Macie\AppData\Local\Temp\face_track_4klsbow5\segment_2_10-08_63_10-39_61_audio.m4a':
  Metadata:
    major_brand     : M4A 
    minor_version   : 512
    compatible_brands: M4A isomiso2
    encoder         : Lavf62.12.101
  Duration: 00:00:30.98, start: 0.000000, bitrate: 193 kb/s
  Stream #1:0[0x1](eng): Audio: aac (LC) (mp4a / 0x6134706D), 48000 Hz, stereo, fltp, 191 kb/s (default)
    Metadata:
      handler_name    : SoundHandler
Stream mapping:
  Stream #0:0 -> #0:0 (h264 (native) -> h264 (libx264))
  Stream #1:0 -> #0:1 (aac (native) -> aac (native))
Press [q] to stop, [?] for help
[swscaler @ 00000270d5f561c0] deprecated pixel format used, make sure you did set range correctly
[libx264 @ 00000270d4430780] using SAR=1/1
[libx264 @ 00000270d4430780] using cpu capabilities: MMX2 SSE2Fast SSSE3 SSE4.2 AVX FMA3 BMI2 AVX2 AVX512
[libx264 @ 00000270d4430780] profile High, level 4.0, 4:2:0, 8-bit
[libx264 @ 00000270d4430780] 264 - core 165 r3223 0480cb0 - H.264/MPEG-4 AVC codec - Copyleft 2003-2025 - http://www.videolan.org/x264.html - options: cabac=1 ref=1 deblock=1:0:0 analyse=0x3:0x3 me=dia subme=1 psy=1 psy_rd=1.00:0.00 mixed_ref=0 me_range=16 chroma_me=1 trellis=0 8x8dct=1 cqm=0 deadzone=21,11 fast_pskip=1 chroma_qp_offset=0 threads=24 lookahead_threads=4 sliced_threads=0 nr=0 decimate=1 interlaced=0 bluray_compat=0 constrained_intra=0 bframes=3 b_pyramid=2 b_adapt=1 b_bias=0 direct=1 weightb=1 open_gop=0 weightp=1 keyint=250 keyint_min=25 scenecut=40 intra_refresh=0 rc=crf mbtree=0 crf=23.0 qcomp=0.60 qpmin=0 qpmax=69 qpstep=4 ip_ratio=1.40 pb_ratio=1.30 aq=1:1.00
Output #0, mp4, to 'D:\PythonProjects\viral-cutter-ai\benchmarks\runs\20260510_171633\putin_parade_commentary\auto\cuts_raw\segment_2_10-08_63_10-39_61.mp4':
  Metadata:
    software        : Lavf62.12.101
    encoder         : Lavf62.12.101
  Stream #0:0: Video: h264 (avc1 / 0x31637661), yuv420p(pc, bt470bg/unknown/unknown, progressive), 1080x1920 [SAR 1:1 DAR 9:16], q=2-31, 25 fps, 12800 tbn
    Metadata:
      encoder         : Lavc62.28.101 libx264
    Side data:
      CPB properties: bitrate max/min/avg: 0/0/0 buffer size: 0 vbv_delay: N/A
  Stream #0:1(eng): Audio: aac (LC) (mp4a / 0x6134706D), 48000 Hz, stereo, fltp, 192 kb/s (default)
    Metadata:
      encoder         : Lavc62.28.101 aac
      handler_name    : SoundHandler
frame=  219 fps=0.0 q=23.0 size=    4096KiB time=00:00:08.76 bitrate=3830.5kbits/s speed=16.9x elapsed=0:00:00.51    frame=  526 fps=505 q=23.0 size=    8960KiB time=00:00:22.46 bitrate=3267.5kbits/s speed=21.6x elapsed=0:00:01.04    [mp4 @ 00000270d40d1b40] Starting second pass: moving the moov atom to the beginning of the file
[out#0/mp4 @ 00000270d41fa700] video:12650KiB audio:734KiB subtitle:0KiB other streams:0KiB global headers:0KiB muxing overhead: 0.181885%
frame=  772 fps=585 q=-1.0 Lsize=   13408KiB time=00:00:30.88 bitrate=3557.1kbits/s speed=23.4x elapsed=0:00:01.31    
[libx264 @ 00000270d4430780] frame I:5     Avg QP:14.35  size: 74261
[libx264 @ 00000270d4430780] frame P:212   Avg QP:16.08  size: 32804
[libx264 @ 00000270d4430780] frame B:555   Avg QP:18.57  size: 10139
[libx264 @ 00000270d4430780] consecutive B-frames:  2.3%  4.7%  2.3% 90.7%
[libx264 @ 00000270d4430780] mb I  I16..4: 30.8% 39.6% 29.6%
[libx264 @ 00000270d4430780] mb P  I16..4:  8.7% 18.8%  5.1%  P16..4: 34.6%  0.0%  0.0%  0.0%  0.0%    skip:32.8%
[libx264 @ 00000270d4430780] mb B  I16..4:  1.0%  2.4%  0.4%  B16..8: 23.3%  0.0%  0.0%  direct:10.0%  skip:62.8%  L0:39.7% L1:48.0% BI:12.3%
[libx264 @ 00000270d4430780] 8x8 transform intra:57.9% inter:50.3%
[libx264 @ 00000270d4430780] coded y,uvDC,uvAC intra: 48.5% 48.7% 23.2% inter: 5.7% 15.8% 0.5%
[libx264 @ 00000270d4430780] i16 v,h,dc,p: 55% 27%  7% 12%
[libx264 @ 00000270d4430780] i8 v,h,dc,ddl,ddr,vr,hd,vl,hu: 17% 21% 16%  7%  8%  8%  9%  6%  8%
[libx264 @ 00000270d4430780] i4 v,h,dc,ddl,ddr,vr,hd,vl,hu: 19% 28% 10%  8%  7%  6%  8%  5%  8%
[libx264 @ 00000270d4430780] i8c dc,h,v,p: 44% 23% 19% 13%
[libx264 @ 00000270d4430780] Weighted P-Frames: Y:5.2% UV:1.4%
[libx264 @ 00000270d4430780] kb/s:3355.70
[aac @ 00000270d44662c0] Qavg: 924.432
W0000 00:00:1778437265.560809   13104 inference_feedback_manager.cc:121] Feedback manager requires a model with a single signature inference. Disabling support for feedback tensors.
ffmpeg version 8.1.1-full_build-www.gyan.dev Copyright (c) 2000-2026 the FFmpeg developers
  built with gcc 15.2.0 (Rev13, Built by MSYS2 project)
  configuration: --enable-gpl --enable-version3 --enable-static --disable-w32threads --disable-autodetect --enable-cairo --enable-fontconfig --enable-iconv --enable-gnutls --enable-lcms2 --enable-libxml2 --enable-gmp --enable-bzlib --enable-lzma --enable-libsnappy --enable-zlib --enable-librist --enable-libsrt --enable-libssh --enable-libzmq --enable-avisynth --enable-libbluray --enable-libcaca --enable-libdvdnav --enable-libdvdread --enable-sdl2 --enable-libaribb24 --enable-libaribcaption --enable-libdav1d --enable-libdavs2 --enable-libopenjpeg --enable-libquirc --enable-libuavs3d --enable-libxevd --enable-libzvbi --enable-liboapv --enable-libqrencode --enable-librav1e --enable-libsvtav1 --enable-libvvenc --enable-libwebp --enable-libx264 --enable-libx265 --enable-libxavs2 --enable-libxeve --enable-libxvid --enable-libaom --enable-libjxl --enable-libsvtjpegxs --enable-libvpx --enable-mediafoundation --enable-libass --enable-frei0r --enable-libfreetype --enable-libfribidi --enable-libharfbuzz --enable-liblensfun --enable-libvidstab --enable-libvmaf --enable-libzimg --enable-amf --enable-cuda-llvm --enable-cuvid --enable-dxva2 --enable-d3d11va --enable-d3d12va --enable-ffnvcodec --enable-libvpl --enable-nvdec --enable-nvenc --enable-vaapi --enable-libshaderc --enable-vulkan --enable-libplacebo --enable-opencl --enable-libcdio --enable-openal --enable-libgme --enable-libmodplug --enable-libopenmpt --enable-libopencore-amrwb --enable-libmp3lame --enable-libshine --enable-libtheora --enable-libtwolame --enable-libvo-amrwbenc --enable-libcodec2 --enable-libilbc --enable-libgsm --enable-liblc3 --enable-libopencore-amrnb --enable-libopus --enable-libspeex --enable-libvorbis --enable-ladspa --enable-libbs2b --enable-libflite --enable-libmysofa --enable-librubberband --enable-libsoxr --enable-chromaprint --enable-whisper
  libavutil      60. 26.101 / 60. 26.101
  libavcodec     62. 28.101 / 62. 28.101
  libavformat    62. 12.101 / 62. 12.101
  libavdevice    62.  3.101 / 62.  3.101
  libavfilter    11. 14.101 / 11. 14.101
  libswscale      9.  5.101 /  9.  5.101
  libswresample   6.  3.101 /  6.  3.101
Input #0, avi, from 'C:\Users\Macie\AppData\Local\Temp\face_track_ns5b1uim\segment_3_00-55_26_01-34_25_silent.avi':
  Metadata:
    software        : Lavf62.12.101
  Duration: 00:00:39.00, start: 0.000000, bitrate: 6607 kb/s
  Stream #0:0: Video: h264 (High) (H264 / 0x34363248), yuvj420p(pc, bt470bg/unknown/unknown, progressive), 1080x1920 [SAR 1:1 DAR 9:16], 6608 kb/s, 25 fps, 25 tbr, 25 tbn
Input #1, mov,mp4,m4a,3gp,3g2,mj2, from 'C:\Users\Macie\AppData\Local\Temp\face_track_ns5b1uim\segment_3_00-55_26_01-34_25_audio.m4a':
  Metadata:
    major_brand     : M4A 
    minor_version   : 512
    compatible_brands: M4A isomiso2
    encoder         : Lavf62.12.101
  Duration: 00:00:38.99, start: 0.000000, bitrate: 195 kb/s
  Stream #1:0[0x1](eng): Audio: aac (LC) (mp4a / 0x6134706D), 48000 Hz, stereo, fltp, 193 kb/s (default)
    Metadata:
      handler_name    : SoundHandler
Stream mapping:
  Stream #0:0 -> #0:0 (h264 (native) -> h264 (libx264))
  Stream #1:0 -> #0:1 (aac (native) -> aac (native))
Press [q] to stop, [?] for help
[swscaler @ 00000215bf3b1cc0] deprecated pixel format used, make sure you did set range correctly
[libx264 @ 00000215bdb6ba00] using SAR=1/1
[libx264 @ 00000215bdb6ba00] using cpu capabilities: MMX2 SSE2Fast SSSE3 SSE4.2 AVX FMA3 BMI2 AVX2 AVX512
[libx264 @ 00000215bdb6ba00] profile High, level 4.0, 4:2:0, 8-bit
[libx264 @ 00000215bdb6ba00] 264 - core 165 r3223 0480cb0 - H.264/MPEG-4 AVC codec - Copyleft 2003-2025 - http://www.videolan.org/x264.html - options: cabac=1 ref=1 deblock=1:0:0 analyse=0x3:0x3 me=dia subme=1 psy=1 psy_rd=1.00:0.00 mixed_ref=0 me_range=16 chroma_me=1 trellis=0 8x8dct=1 cqm=0 deadzone=21,11 fast_pskip=1 chroma_qp_offset=0 threads=24 lookahead_threads=4 sliced_threads=0 nr=0 decimate=1 interlaced=0 bluray_compat=0 constrained_intra=0 bframes=3 b_pyramid=2 b_adapt=1 b_bias=0 direct=1 weightb=1 open_gop=0 weightp=1 keyint=250 keyint_min=25 scenecut=40 intra_refresh=0 rc=crf mbtree=0 crf=23.0 qcomp=0.60 qpmin=0 qpmax=69 qpstep=4 ip_ratio=1.40 pb_ratio=1.30 aq=1:1.00
Output #0, mp4, to 'D:\PythonProjects\viral-cutter-ai\benchmarks\runs\20260510_171633\putin_parade_commentary\auto\cuts_raw\segment_3_00-55_26_01-34_25.mp4':
  Metadata:
    software        : Lavf62.12.101
    encoder         : Lavf62.12.101
  Stream #0:0: Video: h264 (avc1 / 0x31637661), yuv420p(pc, bt470bg/unknown/unknown, progressive), 1080x1920 [SAR 1:1 DAR 9:16], q=2-31, 25 fps, 12800 tbn
    Metadata:
      encoder         : Lavc62.28.101 libx264
    Side data:
      CPB properties: bitrate max/min/avg: 0/0/0 buffer size: 0 vbv_delay: N/A
  Stream #0:1(eng): Audio: aac (LC) (mp4a / 0x6134706D), 48000 Hz, stereo, fltp, 192 kb/s (default)
    Metadata:
      encoder         : Lavc62.28.101 aac
      handler_name    : SoundHandler
frame=  239 fps=0.0 q=17.0 size=    2048KiB time=00:00:09.56 bitrate=1755.0kbits/s speed=18.7x elapsed=0:00:00.51    frame=  550 fps=540 q=24.0 size=    7168KiB time=00:00:22.00 bitrate=2669.1kbits/s speed=21.6x elapsed=0:00:01.01    frame=  875 fps=570 q=24.0 size=   13824KiB time=00:00:36.35 bitrate=3115.3kbits/s speed=23.7x elapsed=0:00:01.53    [mp4 @ 00000215bd510480] Starting second pass: moving the moov atom to the beginning of the file
[out#0/mp4 @ 00000215bb5a6e00] video:14815KiB audio:926KiB subtitle:0KiB other streams:0KiB global headers:0KiB muxing overhead: 0.189321%
frame=  972 fps=594 q=-1.0 Lsize=   15771KiB time=00:00:38.88 bitrate=3322.9kbits/s speed=23.7x elapsed=0:00:01.63    
[libx264 @ 00000215bdb6ba00] frame I:9     Avg QP:12.70  size: 91887
[libx264 @ 00000215bdb6ba00] frame P:321   Avg QP:15.76  size: 27908
[libx264 @ 00000215bdb6ba00] frame B:642   Avg QP:18.44  size:  8387
[libx264 @ 00000215bdb6ba00] consecutive B-frames:  9.7%  5.8%  3.1% 81.5%
[libx264 @ 00000215bdb6ba00] mb I  I16..4: 31.9% 38.8% 29.3%
[libx264 @ 00000215bdb6ba00] mb P  I16..4:  8.5% 13.9%  3.7%  P16..4: 33.9%  0.0%  0.0%  0.0%  0.0%    skip:39.9%
[libx264 @ 00000215bdb6ba00] mb B  I16..4:  0.9%  1.5%  0.2%  B16..8: 19.4%  0.0%  0.0%  direct: 9.6%  skip:68.4%  L0:38.3% L1:48.8% BI:13.0%
[libx264 @ 00000215bdb6ba00] 8x8 transform intra:52.8% inter:47.9%
[libx264 @ 00000215bdb6ba00] coded y,uvDC,uvAC intra: 43.0% 48.8% 23.3% inter: 5.9% 12.8% 0.4%
[libx264 @ 00000215bdb6ba00] i16 v,h,dc,p: 65% 19%  5% 11%
[libx264 @ 00000215bdb6ba00] i8 v,h,dc,ddl,ddr,vr,hd,vl,hu: 18% 18% 16%  8%  8%  8%  8%  8%  8%
[libx264 @ 00000215bdb6ba00] i4 v,h,dc,ddl,ddr,vr,hd,vl,hu: 22% 26% 10%  8%  7%  7%  8%  6%  7%
[libx264 @ 00000215bdb6ba00] i8c dc,h,v,p: 46% 19% 19% 15%
[libx264 @ 00000215bdb6ba00] Weighted P-Frames: Y:4.4% UV:2.2%
[libx264 @ 00000215bdb6ba00] kb/s:3121.44
[aac @ 00000215bd9987c0] Qavg: 953.622
W0000 00:00:1778437284.797950   31560 inference_feedback_manager.cc:121] Feedback manager requires a model with a single signature inference. Disabling support for feedback tensors.
ffmpeg version 8.1.1-full_build-www.gyan.dev Copyright (c) 2000-2026 the FFmpeg developers
  built with gcc 15.2.0 (Rev13, Built by MSYS2 project)
  configuration: --enable-gpl --enable-version3 --enable-static --disable-w32threads --disable-autodetect --enable-cairo --enable-fontconfig --enable-iconv --enable-gnutls --enable-lcms2 --enable-libxml2 --enable-gmp --enable-bzlib --enable-lzma --enable-libsnappy --enable-zlib --enable-librist --enable-libsrt --enable-libssh --enable-libzmq --enable-avisynth --enable-libbluray --enable-libcaca --enable-libdvdnav --enable-libdvdread --enable-sdl2 --enable-libaribb24 --enable-libaribcaption --enable-libdav1d --enable-libdavs2 --enable-libopenjpeg --enable-libquirc --enable-libuavs3d --enable-libxevd --enable-libzvbi --enable-liboapv --enable-libqrencode --enable-librav1e --enable-libsvtav1 --enable-libvvenc --enable-libwebp --enable-libx264 --enable-libx265 --enable-libxavs2 --enable-libxeve --enable-libxvid --enable-libaom --enable-libjxl --enable-libsvtjpegxs --enable-libvpx --enable-mediafoundation --enable-libass --enable-frei0r --enable-libfreetype --enable-libfribidi --enable-libharfbuzz --enable-liblensfun --enable-libvidstab --enable-libvmaf --enable-libzimg --enable-amf --enable-cuda-llvm --enable-cuvid --enable-dxva2 --enable-d3d11va --enable-d3d12va --enable-ffnvcodec --enable-libvpl --enable-nvdec --enable-nvenc --enable-vaapi --enable-libshaderc --enable-vulkan --enable-libplacebo --enable-opencl --enable-libcdio --enable-openal --enable-libgme --enable-libmodplug --enable-libopenmpt --enable-libopencore-amrwb --enable-libmp3lame --enable-libshine --enable-libtheora --enable-libtwolame --enable-libvo-amrwbenc --enable-libcodec2 --enable-libilbc --enable-libgsm --enable-liblc3 --enable-libopencore-amrnb --enable-libopus --enable-libspeex --enable-libvorbis --enable-ladspa --enable-libbs2b --enable-libflite --enable-libmysofa --enable-librubberband --enable-libsoxr --enable-chromaprint --enable-whisper
  libavutil      60. 26.101 / 60. 26.101
  libavcodec     62. 28.101 / 62. 28.101
  libavformat    62. 12.101 / 62. 12.101
  libavdevice    62.  3.101 / 62.  3.101
  libavfilter    11. 14.101 / 11. 14.101
  libswscale      9.  5.101 /  9.  5.101
  libswresample   6.  3.101 /  6.  3.101
Input #0, avi, from 'C:\Users\Macie\AppData\Local\Temp\face_track__2qj7xnk\segment_4_12-31_65_13-06_09_silent.avi':
  Metadata:
    software        : Lavf62.12.101
  Duration: 00:00:34.44, start: 0.000000, bitrate: 7812 kb/s
  Stream #0:0: Video: h264 (High) (H264 / 0x34363248), yuvj420p(pc, bt470bg/unknown/unknown, progressive), 1080x1920 [SAR 1:1 DAR 9:16], 7815 kb/s, 25 fps, 25 tbr, 25 tbn
Input #1, mov,mp4,m4a,3gp,3g2,mj2, from 'C:\Users\Macie\AppData\Local\Temp\face_track__2qj7xnk\segment_4_12-31_65_13-06_09_audio.m4a':
  Metadata:
    major_brand     : M4A 
    minor_version   : 512
    compatible_brands: M4A isomiso2
    encoder         : Lavf62.12.101
  Duration: 00:00:34.44, start: 0.000000, bitrate: 193 kb/s
  Stream #1:0[0x1](eng): Audio: aac (LC) (mp4a / 0x6134706D), 48000 Hz, stereo, fltp, 191 kb/s (default)
    Metadata:
      handler_name    : SoundHandler
Stream mapping:
  Stream #0:0 -> #0:0 (h264 (native) -> h264 (libx264))
  Stream #1:0 -> #0:1 (aac (native) -> aac (native))
Press [q] to stop, [?] for help
[swscaler @ 0000022029d4a080] deprecated pixel format used, make sure you did set range correctly
[libx264 @ 0000022027fae5c0] using SAR=1/1
[libx264 @ 0000022027fae5c0] using cpu capabilities: MMX2 SSE2Fast SSSE3 SSE4.2 AVX FMA3 BMI2 AVX2 AVX512
[libx264 @ 0000022027fae5c0] profile High, level 4.0, 4:2:0, 8-bit
[libx264 @ 0000022027fae5c0] 264 - core 165 r3223 0480cb0 - H.264/MPEG-4 AVC codec - Copyleft 2003-2025 - http://www.videolan.org/x264.html - options: cabac=1 ref=1 deblock=1:0:0 analyse=0x3:0x3 me=dia subme=1 psy=1 psy_rd=1.00:0.00 mixed_ref=0 me_range=16 chroma_me=1 trellis=0 8x8dct=1 cqm=0 deadzone=21,11 fast_pskip=1 chroma_qp_offset=0 threads=24 lookahead_threads=4 sliced_threads=0 nr=0 decimate=1 interlaced=0 bluray_compat=0 constrained_intra=0 bframes=3 b_pyramid=2 b_adapt=1 b_bias=0 direct=1 weightb=1 open_gop=0 weightp=1 keyint=250 keyint_min=25 scenecut=40 intra_refresh=0 rc=crf mbtree=0 crf=23.0 qcomp=0.60 qpmin=0 qpmax=69 qpstep=4 ip_ratio=1.40 pb_ratio=1.30 aq=1:1.00
Output #0, mp4, to 'D:\PythonProjects\viral-cutter-ai\benchmarks\runs\20260510_171633\putin_parade_commentary\auto\cuts_raw\segment_4_12-31_65_13-06_09.mp4':
  Metadata:
    software        : Lavf62.12.101
    encoder         : Lavf62.12.101
  Stream #0:0: Video: h264 (avc1 / 0x31637661), yuv420p(pc, bt470bg/unknown/unknown, progressive), 1080x1920 [SAR 1:1 DAR 9:16], q=2-31, 25 fps, 12800 tbn
    Metadata:
      encoder         : Lavc62.28.101 libx264
    Side data:
      CPB properties: bitrate max/min/avg: 0/0/0 buffer size: 0 vbv_delay: N/A
  Stream #0:1(eng): Audio: aac (LC) (mp4a / 0x6134706D), 48000 Hz, stereo, fltp, 192 kb/s (default)
    Metadata:
      encoder         : Lavc62.28.101 aac
      handler_name    : SoundHandler
frame=  219 fps=0.0 q=20.0 size=    4096KiB time=00:00:08.76 bitrate=3830.5kbits/s speed=  17x elapsed=0:00:00.51    frame=  520 fps=503 q=24.0 size=    9216KiB time=00:00:20.80 bitrate=3629.7kbits/s speed=20.1x elapsed=0:00:01.03    [mp4 @ 0000022027db0940] Starting second pass: moving the moov atom to the beginning of the file
[out#0/mp4 @ 0000022027fad0c0] video:14609KiB audio:814KiB subtitle:0KiB other streams:0KiB global headers:0KiB muxing overhead: 0.174843%
frame=  859 fps=597 q=-1.0 Lsize=   15449KiB time=00:00:34.36 bitrate=3683.4kbits/s speed=23.9x elapsed=0:00:01.43    
[libx264 @ 0000022027fae5c0] frame I:5     Avg QP:15.31  size: 85174
[libx264 @ 0000022027fae5c0] frame P:230   Avg QP:17.25  size: 35447
[libx264 @ 0000022027fae5c0] frame B:624   Avg QP:20.39  size: 10224
[libx264 @ 0000022027fae5c0] consecutive B-frames:  2.2%  2.8%  0.0% 95.0%
[libx264 @ 0000022027fae5c0] mb I  I16..4: 28.1% 34.5% 37.4%
[libx264 @ 0000022027fae5c0] mb P  I16..4:  8.2% 15.4%  4.2%  P16..4: 39.7%  0.0%  0.0%  0.0%  0.0%    skip:32.5%
[libx264 @ 0000022027fae5c0] mb B  I16..4:  0.7%  2.0%  0.3%  B16..8: 21.2%  0.0%  0.0%  direct:11.8%  skip:64.0%  L0:39.9% L1:46.6% BI:13.4%
[libx264 @ 0000022027fae5c0] 8x8 transform intra:56.6% inter:42.3%
[libx264 @ 0000022027fae5c0] coded y,uvDC,uvAC intra: 49.9% 46.9% 22.4% inter: 7.2% 15.0% 0.6%
[libx264 @ 0000022027fae5c0] i16 v,h,dc,p: 59% 26%  6% 10%
[libx264 @ 0000022027fae5c0] i8 v,h,dc,ddl,ddr,vr,hd,vl,hu: 18% 18% 15%  7%  8%  9%  9%  8%  9%
[libx264 @ 0000022027fae5c0] i4 v,h,dc,ddl,ddr,vr,hd,vl,hu: 24% 20% 10%  8%  8%  8%  8%  7%  7%
[libx264 @ 0000022027fae5c0] i8c dc,h,v,p: 52% 17% 19% 12%
[libx264 @ 0000022027fae5c0] Weighted P-Frames: Y:1.7% UV:0.0%
[libx264 @ 0000022027fae5c0] kb/s:3482.78
[aac @ 000002202826af00] Qavg: 946.323
W0000 00:00:1778437302.487093    6884 inference_feedback_manager.cc:121] Feedback manager requires a model with a single signature inference. Disabling support for feedback tensors.
ffmpeg version 8.1.1-full_build-www.gyan.dev Copyright (c) 2000-2026 the FFmpeg developers
  built with gcc 15.2.0 (Rev13, Built by MSYS2 project)
  configuration: --enable-gpl --enable-version3 --enable-static --disable-w32threads --disable-autodetect --enable-cairo --enable-fontconfig --enable-iconv --enable-gnutls --enable-lcms2 --enable-libxml2 --enable-gmp --enable-bzlib --enable-lzma --enable-libsnappy --enable-zlib --enable-librist --enable-libsrt --enable-libssh --enable-libzmq --enable-avisynth --enable-libbluray --enable-libcaca --enable-libdvdnav --enable-libdvdread --enable-sdl2 --enable-libaribb24 --enable-libaribcaption --enable-libdav1d --enable-libdavs2 --enable-libopenjpeg --enable-libquirc --enable-libuavs3d --enable-libxevd --enable-libzvbi --enable-liboapv --enable-libqrencode --enable-librav1e --enable-libsvtav1 --enable-libvvenc --enable-libwebp --enable-libx264 --enable-libx265 --enable-libxavs2 --enable-libxeve --enable-libxvid --enable-libaom --enable-libjxl --enable-libsvtjpegxs --enable-libvpx --enable-mediafoundation --enable-libass --enable-frei0r --enable-libfreetype --enable-libfribidi --enable-libharfbuzz --enable-liblensfun --enable-libvidstab --enable-libvmaf --enable-libzimg --enable-amf --enable-cuda-llvm --enable-cuvid --enable-dxva2 --enable-d3d11va --enable-d3d12va --enable-ffnvcodec --enable-libvpl --enable-nvdec --enable-nvenc --enable-vaapi --enable-libshaderc --enable-vulkan --enable-libplacebo --enable-opencl --enable-libcdio --enable-openal --enable-libgme --enable-libmodplug --enable-libopenmpt --enable-libopencore-amrwb --enable-libmp3lame --enable-libshine --enable-libtheora --enable-libtwolame --enable-libvo-amrwbenc --enable-libcodec2 --enable-libilbc --enable-libgsm --enable-liblc3 --enable-libopencore-amrnb --enable-libopus --enable-libspeex --enable-libvorbis --enable-ladspa --enable-libbs2b --enable-libflite --enable-libmysofa --enable-librubberband --enable-libsoxr --enable-chromaprint --enable-whisper
  libavutil      60. 26.101 / 60. 26.101
  libavcodec     62. 28.101 / 62. 28.101
  libavformat    62. 12.101 / 62. 12.101
  libavdevice    62.  3.101 / 62.  3.101
  libavfilter    11. 14.101 / 11. 14.101
  libswscale      9.  5.101 /  9.  5.101
  libswresample   6.  3.101 /  6.  3.101
Input #0, avi, from 'C:\Users\Macie\AppData\Local\Temp\face_track_jlwxffi4\segment_5_14-34_63_15-19_99_silent.avi':
  Metadata:
    software        : Lavf62.12.101
  Duration: 00:00:45.36, start: 0.000000, bitrate: 8245 kb/s
  Stream #0:0: Video: h264 (High) (H264 / 0x34363248), yuvj420p(pc, bt470bg/unknown/unknown, progressive), 1080x1920 [SAR 1:1 DAR 9:16], 8246 kb/s, 25 fps, 25 tbr, 25 tbn
Input #1, mov,mp4,m4a,3gp,3g2,mj2, from 'C:\Users\Macie\AppData\Local\Temp\face_track_jlwxffi4\segment_5_14-34_63_15-19_99_audio.m4a':
  Metadata:
    major_brand     : M4A 
    minor_version   : 512
    compatible_brands: M4A isomiso2
    encoder         : Lavf62.12.101
  Duration: 00:00:45.36, start: 0.000000, bitrate: 194 kb/s
  Stream #1:0[0x1](eng): Audio: aac (LC) (mp4a / 0x6134706D), 48000 Hz, stereo, fltp, 192 kb/s (default)
    Metadata:
      handler_name    : SoundHandler
Stream mapping:
  Stream #0:0 -> #0:0 (h264 (native) -> h264 (libx264))
  Stream #1:0 -> #0:1 (aac (native) -> aac (native))
Press [q] to stop, [?] for help
[swscaler @ 0000022c5dd6d140] deprecated pixel format used, make sure you did set range correctly
[libx264 @ 0000022c59c5e580] using SAR=1/1
[libx264 @ 0000022c59c5e580] using cpu capabilities: MMX2 SSE2Fast SSSE3 SSE4.2 AVX FMA3 BMI2 AVX2 AVX512
[libx264 @ 0000022c59c5e580] profile High, level 4.0, 4:2:0, 8-bit
[libx264 @ 0000022c59c5e580] 264 - core 165 r3223 0480cb0 - H.264/MPEG-4 AVC codec - Copyleft 2003-2025 - http://www.videolan.org/x264.html - options: cabac=1 ref=1 deblock=1:0:0 analyse=0x3:0x3 me=dia subme=1 psy=1 psy_rd=1.00:0.00 mixed_ref=0 me_range=16 chroma_me=1 trellis=0 8x8dct=1 cqm=0 deadzone=21,11 fast_pskip=1 chroma_qp_offset=0 threads=24 lookahead_threads=4 sliced_threads=0 nr=0 decimate=1 interlaced=0 bluray_compat=0 constrained_intra=0 bframes=3 b_pyramid=2 b_adapt=1 b_bias=0 direct=1 weightb=1 open_gop=0 weightp=1 keyint=250 keyint_min=25 scenecut=40 intra_refresh=0 rc=crf mbtree=0 crf=23.0 qcomp=0.60 qpmin=0 qpmax=69 qpstep=4 ip_ratio=1.40 pb_ratio=1.30 aq=1:1.00
Output #0, mp4, to 'D:\PythonProjects\viral-cutter-ai\benchmarks\runs\20260510_171633\putin_parade_commentary\auto\cuts_raw\segment_5_14-34_63_15-19_99.mp4':
  Metadata:
    software        : Lavf62.12.101
    encoder         : Lavf62.12.101
  Stream #0:0: Video: h264 (avc1 / 0x31637661), yuv420p(pc, bt470bg/unknown/unknown, progressive), 1080x1920 [SAR 1:1 DAR 9:16], q=2-31, 25 fps, 12800 tbn
    Metadata:
      encoder         : Lavc62.28.101 libx264
    Side data:
      CPB properties: bitrate max/min/avg: 0/0/0 buffer size: 0 vbv_delay: N/A
  Stream #0:1(eng): Audio: aac (LC) (mp4a / 0x6134706D), 48000 Hz, stereo, fltp, 192 kb/s (default)
    Metadata:
      encoder         : Lavc62.28.101 aac
      handler_name    : SoundHandler
frame=  219 fps=0.0 q=24.0 size=    3584KiB time=00:00:08.76 bitrate=3351.7kbits/s speed=16.9x elapsed=0:00:00.51    frame=  415 fps=401 q=22.0 size=    9728KiB time=00:00:16.60 bitrate=4800.7kbits/s speed=  16x elapsed=0:00:01.03    frame=  697 fps=452 q=21.0 size=   15616KiB time=00:00:27.88 bitrate=4588.5kbits/s speed=18.1x elapsed=0:00:01.54    frame= 1037 fps=501 q=23.0 size=   21760KiB time=00:00:42.85 bitrate=4159.2kbits/s speed=20.7x elapsed=0:00:02.07    [mp4 @ 0000022c5b85ed40] Starting second pass: moving the moov atom to the beginning of the file
[out#0/mp4 @ 0000022c59c36f00] video:22074KiB audio:1073KiB subtitle:0KiB other streams:0KiB global headers:0KiB muxing overhead: 0.148089%
frame= 1132 fps=522 q=-1.0 Lsize=   23181KiB time=00:00:45.28 bitrate=4193.8kbits/s speed=20.9x elapsed=0:00:02.16    
[libx264 @ 0000022c59c5e580] frame I:8     Avg QP:13.61  size: 60810
[libx264 @ 0000022c59c5e580] frame P:408   Avg QP:16.85  size: 34630
[libx264 @ 0000022c59c5e580] frame B:716   Avg QP:19.26  size: 11156
[libx264 @ 0000022c59c5e580] consecutive B-frames: 11.4% 11.3%  4.5% 72.8%
[libx264 @ 0000022c59c5e580] mb I  I16..4: 28.7% 51.7% 19.7%
[libx264 @ 0000022c59c5e580] mb P  I16..4: 13.3% 28.4%  5.5%  P16..4: 33.3%  0.0%  0.0%  0.0%  0.0%    skip:19.5%
[libx264 @ 0000022c59c5e580] mb B  I16..4:  2.1%  3.9%  0.4%  B16..8: 26.3%  0.0%  0.0%  direct: 9.7%  skip:57.6%  L0:41.3% L1:46.7% BI:12.0%
[libx264 @ 0000022c59c5e580] 8x8 transform intra:60.2% inter:49.6%
[libx264 @ 0000022c59c5e580] coded y,uvDC,uvAC intra: 38.7% 38.7% 15.3% inter: 6.5% 16.0% 0.3%
[libx264 @ 0000022c59c5e580] i16 v,h,dc,p: 56% 22%  6% 15%
[libx264 @ 0000022c59c5e580] i8 v,h,dc,ddl,ddr,vr,hd,vl,hu: 18% 22% 16%  6%  7%  7%  9%  6%  8%
[libx264 @ 0000022c59c5e580] i4 v,h,dc,ddl,ddr,vr,hd,vl,hu: 24% 27% 11%  8%  6%  6%  7%  5%  7%
[libx264 @ 0000022c59c5e580] i8c dc,h,v,p: 50% 19% 19% 12%
[libx264 @ 0000022c59c5e580] Weighted P-Frames: Y:11.0% UV:7.1%
[libx264 @ 0000022c59c5e580] kb/s:3993.46
[aac @ 0000022c59c2c600] Qavg: 872.380
Cutting segment 1: 417.53s - 467.13s -> D:\PythonProjects\viral-cutter-ai\benchmarks\runs\20260510_171633\putin_parade_commentary\auto\cuts_raw\segment_1_06-57_53_07-47_13.mp4
Cutting segment 2: 608.63s - 639.61s -> D:\PythonProjects\viral-cutter-ai\benchmarks\runs\20260510_171633\putin_parade_commentary\auto\cuts_raw\segment_2_10-08_63_10-39_61.mp4
Cutting segment 3: 55.26s - 94.25s -> D:\PythonProjects\viral-cutter-ai\benchmarks\runs\20260510_171633\putin_parade_commentary\auto\cuts_raw\segment_3_00-55_26_01-34_25.mp4
Cutting segment 4: 751.65s - 786.09s -> D:\PythonProjects\viral-cutter-ai\benchmarks\runs\20260510_171633\putin_parade_commentary\auto\cuts_raw\segment_4_12-31_65_13-06_09.mp4
Cutting segment 5: 874.63s - 919.99s -> D:\PythonProjects\viral-cutter-ai\benchmarks\runs\20260510_171633\putin_parade_commentary\auto\cuts_raw\segment_5_14-34_63_15-19_99.mp4
Done. Files saved in D:\PythonProjects\viral-cutter-ai\benchmarks\runs\20260510_171633\putin_parade_commentary\auto\cuts_raw
$ D:\PythonProjects\viral-cutter-ai\.venv\Scripts\python.exe D:\PythonProjects\viral-cutter-ai\cutter.py --video D:\PythonProjects\viral-cutter-ai\benchmarks\assets\putin_parade_commentary\input\source.mp4 --windows D:\PythonProjects\viral-cutter-ai\benchmarks\runs\20260510_171633\putin_parade_commentary\auto\top_windows.json --transcript D:\PythonProjects\viral-cutter-ai\benchmarks\runs\20260510_171633\putin_parade_commentary\shared\transcript.json --output-dir D:\PythonProjects\viral-cutter-ai\benchmarks\runs\20260510_171633\putin_parade_commentary\auto\cuts_raw --cutting-log D:\PythonProjects\viral-cutter-ai\benchmarks\runs\20260510_171633\putin_parade_commentary\auto\cutting_logic.json

